<svg width="11" height="12" viewBox="0 0 11 12" fill="none" xmlns="http://www.w3.org/2000/svg">
<path d="M9.45378 1.5H8.31933V0.28125C8.31933 0.126563 8.1917 0 8.03571 0H7.84664C7.69065 0 7.56302 0.126563 7.56302 0.28125V1.5H3.02521V0.28125C3.02521 0.126563 2.89758 0 2.7416 0H2.55252C2.39653 0 2.26891 0.126563 2.26891 0.28125V1.5H1.13445C0.508141 1.5 0 2.00391 0 2.625V10.875C0 11.4961 0.508141 12 1.13445 12H9.45378C10.0801 12 10.5882 11.4961 10.5882 10.875V2.625C10.5882 2.00391 10.0801 1.5 9.45378 1.5ZM1.13445 2.25H9.45378C9.66176 2.25 9.83193 2.41875 9.83193 2.625V3.75H0.756302V2.625C0.756302 2.41875 0.926471 2.25 1.13445 2.25ZM9.45378 11.25H1.13445C0.926471 11.25 0.756302 11.0813 0.756302 10.875V4.5H9.83193V10.875C9.83193 11.0813 9.66176 11.25 9.45378 11.25ZM3.4979 7.5H2.55252C2.39653 7.5 2.26891 7.37344 2.26891 7.21875V6.28125C2.26891 6.12656 2.39653 6 2.55252 6H3.4979C3.65389 6 3.78151 6.12656 3.78151 6.28125V7.21875C3.78151 7.37344 3.65389 7.5 3.4979 7.5ZM5.76681 7.5H4.82143C4.66544 7.5 4.53782 7.37344 4.53782 7.21875V6.28125C4.53782 6.12656 4.66544 6 4.82143 6H5.76681C5.92279 6 6.05042 6.12656 6.05042 6.28125V7.21875C6.05042 7.37344 5.92279 7.5 5.76681 7.5ZM8.03571 7.5H7.09034C6.93435 7.5 6.80672 7.37344 6.80672 7.21875V6.28125C6.80672 6.12656 6.93435 6 7.09034 6H8.03571C8.1917 6 8.31933 6.12656 8.31933 6.28125V7.21875C8.31933 7.37344 8.1917 7.5 8.03571 7.5ZM5.76681 9.75H4.82143C4.66544 9.75 4.53782 9.62344 4.53782 9.46875V8.53125C4.53782 8.37656 4.66544 8.25 4.82143 8.25H5.76681C5.92279 8.25 6.05042 8.37656 6.05042 8.53125V9.46875C6.05042 9.62344 5.92279 9.75 5.76681 9.75ZM3.4979 9.75H2.55252C2.39653 9.75 2.26891 9.62344 2.26891 9.46875V8.53125C2.26891 8.37656 2.39653 8.25 2.55252 8.25H3.4979C3.65389 8.25 3.78151 8.37656 3.78151 8.53125V9.46875C3.78151 9.62344 3.65389 9.75 3.4979 9.75ZM8.03571 9.75H7.09034C6.93435 9.75 6.80672 9.62344 6.80672 9.46875V8.53125C6.80672 8.37656 6.93435 8.25 7.09034 8.25H8.03571C8.1917 8.25 8.31933 8.37656 8.31933 8.53125V9.46875C8.31933 9.62344 8.1917 9.75 8.03571 9.75Z" fill="#4A463E"/>
</svg>
