<svg width="30" height="30" viewBox="0 0 30 30" fill="none" xmlns="http://www.w3.org/2000/svg">
<g opacity="0.8">
<g clip-path="url(#clip0)">
<path d="M29.2963 10.3125H25.7883L24.8133 7.875C23.8114 5.36894 21.4202 3.75 18.7207 3.75H11.2793C8.5805 3.75 6.1887 5.36894 5.18617 7.875L4.21116 10.3125H0.703742C0.246125 10.3125 -0.0896174 10.7426 0.0217107 11.1861L0.373273 12.5924C0.451203 12.9053 0.732453 13.125 1.0553 13.125H2.23128C1.44437 13.8123 0.937531 14.8113 0.937531 15.9375V18.75C0.937531 19.6945 1.29847 20.5471 1.87503 21.2068V24.375C1.87503 25.4104 2.71468 26.25 3.75003 26.25H5.62503C6.66038 26.25 7.50003 25.4104 7.50003 24.375V22.5H22.5V24.375C22.5 25.4104 23.3397 26.25 24.375 26.25H26.25C27.2854 26.25 28.125 25.4104 28.125 24.375V21.2068C28.7016 20.5477 29.0625 19.6951 29.0625 18.75V15.9375C29.0625 14.8113 28.5557 13.8123 27.7694 13.125H28.9454C29.2682 13.125 29.5495 12.9053 29.6274 12.5924L29.9789 11.1861C30.0897 10.7426 29.7539 10.3125 29.2963 10.3125ZM8.66781 9.26777C9.09496 8.2002 10.1291 7.5 11.2793 7.5H18.7207C19.8709 7.5 20.9051 8.2002 21.3323 9.26777L22.5 12.1875H7.50003L8.66781 9.26777ZM5.62503 18.7383C4.50003 18.7383 3.75003 17.9906 3.75003 16.8691C3.75003 15.7477 4.50003 15 5.62503 15C6.75003 15 8.43753 16.6822 8.43753 17.8037C8.43753 18.9252 6.75003 18.7383 5.62503 18.7383ZM24.375 18.7383C23.25 18.7383 21.5625 18.9252 21.5625 17.8037C21.5625 16.6822 23.25 15 24.375 15C25.5 15 26.25 15.7477 26.25 16.8691C26.25 17.9906 25.5 18.7383 24.375 18.7383Z" fill="white"/>
</g>
</g>
<defs>
<clipPath id="clip0">
<rect width="30" height="30" fill="white"/>
</clipPath>
</defs>
</svg>
