<svg width="50" height="20" viewBox="0 0 50 20" fill="none" xmlns="http://www.w3.org/2000/svg">
<g clip-path="url(#clip0)">
<path d="M7.99425 11.5884C5.81299 11.5884 4.04419 13.3648 4.04419 15.5582C4.04419 15.7282 4.05785 15.894 4.07911 16.0578C4.32355 18.0147 5.98151 19.5291 7.99425 19.5291C10.0627 19.5291 11.7565 17.9308 11.9281 15.8965C11.9372 15.7841 11.9453 15.6727 11.9453 15.5572C11.9458 13.3653 10.177 11.5884 7.99425 11.5884ZM6.01593 14.0622L6.82214 14.8725C6.75938 14.9809 6.71029 15.0969 6.67891 15.222H5.54273C5.60194 14.7886 5.76744 14.3944 6.01593 14.0622ZM5.53919 15.9087H6.68296C6.71535 16.0303 6.76292 16.1473 6.82568 16.2531L6.01795 17.0645C5.76896 16.7343 5.59941 16.3391 5.53919 15.9087ZM7.65314 18.0254C7.22549 17.9659 6.83631 17.7975 6.50735 17.5477L7.31052 16.7404C7.41578 16.8025 7.53218 16.8478 7.65314 16.8793V18.0254ZM7.65314 14.2377C7.52864 14.2692 7.41224 14.3196 7.30394 14.3842L6.49925 13.5749C6.82973 13.3226 7.22246 13.1552 7.65314 13.0952V14.2377ZM8.33738 13.0952C8.76857 13.1552 9.16079 13.3226 9.49127 13.5754L8.68658 14.3842C8.57828 14.3196 8.46188 14.2692 8.33738 14.2377V13.0952ZM8.33738 18.0249V16.8793C8.45884 16.8473 8.57423 16.802 8.68 16.7394L9.48368 17.5477C9.15421 17.796 8.76452 17.9649 8.33738 18.0249ZM9.97409 17.0675L9.16383 16.2521C9.22659 16.1458 9.27871 16.0313 9.3111 15.9082H10.4463C10.3855 16.3391 10.2231 16.7369 9.97409 17.0675ZM9.3111 15.221C9.27922 15.0969 9.23063 14.9799 9.16788 14.8715L9.97409 14.0612C10.2236 14.3934 10.3881 14.7881 10.4473 15.22L9.3111 15.221Z" fill="#493F3A"/>
<path d="M41.2491 11.5884C39.0679 11.5884 37.2991 13.3648 37.2991 15.5582C37.2991 15.7282 37.3127 15.894 37.334 16.0578C37.5779 18.0147 39.2364 19.5291 41.2486 19.5291C43.317 19.5291 45.0114 17.9308 45.1825 15.8965C45.1916 15.7841 45.1997 15.6727 45.1997 15.5572C45.2007 13.3653 43.4319 11.5884 41.2491 11.5884ZM39.2703 14.0622L40.077 14.8725C40.0143 14.9809 39.9647 15.0969 39.9338 15.222H38.7976C38.8568 14.7886 39.0218 14.3944 39.2703 14.0622ZM38.7941 15.9087H39.9378C39.9702 16.0303 40.0178 16.1473 40.0806 16.2531L39.2728 17.064C39.0243 16.7343 38.8543 16.3391 38.7941 15.9087ZM40.908 18.0254C40.4804 17.9659 40.0912 17.7975 39.7622 17.5477L40.5654 16.7404C40.6707 16.8025 40.7871 16.8478 40.908 16.8793V18.0254ZM40.908 14.2377C40.7835 14.2692 40.6671 14.3196 40.5593 14.3842L39.7541 13.5749C40.0846 13.3226 40.4778 13.1552 40.908 13.0952V14.2377ZM41.5918 13.0952C42.023 13.1552 42.4152 13.3226 42.7451 13.5754L41.9405 14.3842C41.8322 14.3196 41.7158 14.2692 41.5918 14.2377V13.0952ZM41.5918 18.0249V16.8793C41.7127 16.8473 41.8286 16.802 41.9344 16.7394L42.7381 17.5477C42.4086 17.796 42.0199 17.9649 41.5918 18.0249ZM43.2285 17.0675L42.4182 16.2521C42.481 16.1458 42.5331 16.0313 42.5655 15.9082H43.7007C43.6399 16.3391 43.4785 16.7369 43.2285 17.0675ZM42.5665 15.221C42.5346 15.0969 42.486 14.9799 42.4233 14.8715L43.2295 14.0612C43.479 14.3934 43.6435 14.7881 43.7032 15.22L42.5665 15.221Z" fill="#493F3A"/>
<path d="M49.6604 10.3254L48.9013 9.59644L48.9028 7.29666C48.9033 6.69285 48.6811 6.11091 48.2788 5.66326L45.4725 2.5394V2.53788C45.4588 1.88879 44.9952 1.34042 44.3606 1.22088C41.0239 0.590616 30.6713 -1.03872 22.4771 1.17408C17.4147 2.54093 12.2677 5.29242 12.2677 5.29242C12.2677 5.29242 3.33007 6.43698 1.18829 9.2429C0.442305 10.2196 0.12954 11.5025 0.0161748 12.6582C-0.142232 14.2733 0.914491 15.748 2.48895 16.1046L3.3154 16.2918C3.30831 16.2465 3.29768 16.2023 3.29212 16.1555C3.26479 15.9439 3.25112 15.7465 3.25112 15.5567C3.25112 12.9273 5.37975 10.7883 7.99575 10.7883C10.6123 10.7883 12.7409 12.9273 12.7409 15.5567C12.7409 15.6946 12.7318 15.8279 12.7206 15.9627C12.707 16.125 12.6842 16.2847 12.6543 16.4414L36.6042 16.4902C36.5824 16.3793 36.5607 16.2689 36.5465 16.1555C36.5192 15.9439 36.5055 15.7465 36.5055 15.5567C36.5055 12.9273 38.6341 10.7883 41.2501 10.7883C43.8666 10.7883 45.9953 12.9273 45.9953 15.5567C45.9953 15.6946 45.9862 15.8279 45.975 15.9627C45.9598 16.1484 45.9295 16.3305 45.893 16.509L46.22 16.5095L47.5824 15.7592C49.0035 14.9774 49.9114 13.5016 49.9726 11.8749L50 11.1632C50.0111 10.8488 49.8881 10.5446 49.6604 10.3254ZM16.9759 5.61595L17.3423 4.14431C17.3423 4.14431 22.8896 1.22749 32.1739 1.54491V5.89369L17.3043 7.07284C17.3043 7.07284 17.3843 6.1399 16.9759 5.61595ZM40.8017 5.21002L33.8101 5.76449V1.63648C36.1092 1.80435 38.6078 2.16908 41.2896 2.8202C41.5609 2.88582 41.7785 3.08828 41.865 3.35483C41.9521 3.62138 41.8954 3.91439 41.7147 4.12804L40.8017 5.21002Z" fill="#493F3A"/>
</g>
<defs>
<clipPath id="clip0">
<rect width="50" height="20" fill="white"/>
</clipPath>
</defs>
</svg>
