<svg width="12" height="12" viewBox="0 0 12 12" fill="none" xmlns="http://www.w3.org/2000/svg">
<path d="M12 5.41935C12 2.12301 9.33999 0 6 0C2.68403 0 0 2.68352 0 6C0 9.31594 2.68352 12 6 12C7.28047 12 8.53261 11.5868 9.55877 10.8309C9.69186 10.7329 9.71417 10.5425 9.60946 10.4145L9.24114 9.96462C9.14303 9.84477 8.96898 9.82423 8.84369 9.91524C8.0213 10.5125 7.02189 10.8387 6 10.8387C3.33194 10.8387 1.16129 8.66806 1.16129 6C1.16129 3.33194 3.33194 1.16129 6 1.16129C8.64844 1.16129 10.8387 2.73435 10.8387 5.41935C10.8387 6.94611 9.81102 7.79734 8.83016 7.79734C8.35827 7.79734 8.34307 7.49202 8.43421 7.03614L9.12665 3.44202C9.16115 3.26294 9.02395 3.09677 8.84158 3.09677H7.8938C7.82632 3.0968 7.76095 3.12032 7.70892 3.1633C7.6569 3.20628 7.62146 3.26603 7.6087 3.3323C7.58204 3.47076 7.56852 3.53398 7.55354 3.67084C7.26508 3.1979 6.68552 2.91919 5.97607 2.91919C4.24384 2.91919 2.70968 4.43102 2.70968 6.61766C2.70968 8.09731 3.50509 9.08806 4.96403 9.08806C5.68507 9.08806 6.44816 8.68081 6.89344 8.06615C6.99373 8.81243 7.58289 8.98575 8.32986 8.98575C10.729 8.98573 12 7.44644 12 5.41935ZM5.37339 7.7746C4.68455 7.7746 4.27331 7.30384 4.27331 6.51532C4.27331 5.12385 5.2304 4.2554 6.07839 4.2554C6.8071 4.2554 7.17849 4.77634 7.17849 5.50331C7.17849 6.63711 6.37582 7.7746 5.37339 7.7746Z" fill="#4A463E"/>
</svg>
