<svg width="23" height="30" viewBox="0 0 23 30" fill="none" xmlns="http://www.w3.org/2000/svg">
<g opacity="0.8">
<g clip-path="url(#clip0)">
<path d="M9.94754 29.3947C1.55737 17.0526 0 15.7859 0 11.25C0 5.03678 4.96378 0 11.087 0C17.2101 0 22.1739 5.03678 22.1739 11.25C22.1739 15.7859 20.6165 17.0526 12.2264 29.3947C11.6758 30.2018 10.4981 30.2017 9.94754 29.3947ZM11.087 15.9375C13.6383 15.9375 15.7065 13.8388 15.7065 11.25C15.7065 8.66115 13.6383 6.5625 11.087 6.5625C8.53563 6.5625 6.46739 8.66115 6.46739 11.25C6.46739 13.8388 8.53563 15.9375 11.087 15.9375Z" fill="white"/>
</g>
</g>
<defs>
<clipPath id="clip0">
<rect width="22.1739" height="30" fill="white"/>
</clipPath>
</defs>
</svg>
