<svg width="9" height="12" viewBox="0 0 9 12" fill="none" xmlns="http://www.w3.org/2000/svg">
<path d="M3.97902 11.7579C0.622948 6.82104 0 6.31437 0 4.5C0 2.01471 1.98551 0 4.43478 0C6.88405 0 8.86956 2.01471 8.86956 4.5C8.86956 6.31437 8.24661 6.82104 4.89055 11.7579C4.67031 12.0807 4.19923 12.0807 3.97902 11.7579ZM4.43478 6.375C5.45531 6.375 6.28261 5.53554 6.28261 4.5C6.28261 3.46446 5.45531 2.625 4.43478 2.625C3.41425 2.625 2.58696 3.46446 2.58696 4.5C2.58696 5.53554 3.41425 6.375 4.43478 6.375Z" fill="#817B70"/>
</svg>
