<svg width="50" height="20" viewBox="0 0 50 20" fill="none" xmlns="http://www.w3.org/2000/svg">
<g clip-path="url(#clip0)">
<path d="M9.60197 11.9879C7.50278 11.9879 5.80029 13.6976 5.80029 15.8086C5.80029 15.9723 5.81337 16.1325 5.83348 16.2892C6.06929 18.1738 7.66468 19.6303 9.60147 19.6303C11.5921 19.6303 13.2226 18.0929 13.3876 16.1351C13.3966 16.0269 13.4041 15.9188 13.4041 15.8086C13.4047 13.6976 11.7027 11.9879 9.60197 11.9879ZM7.69786 14.3688L8.47368 15.1486C8.41285 15.2527 8.36608 15.3654 8.33592 15.4846H7.24283C7.29964 15.0677 7.45803 14.6887 7.69786 14.3688ZM7.23881 16.1457H8.33944C8.37061 16.2634 8.41636 16.3751 8.4772 16.4772L7.69987 17.2585C7.46054 16.9406 7.29713 16.5606 7.23881 16.1457ZM9.27314 18.1824C8.86185 18.1258 8.48676 17.963 8.1705 17.7235L8.9433 16.9462C9.04487 17.0058 9.15649 17.0498 9.27314 17.0806V18.1824ZM9.27314 14.5376C9.15347 14.5689 9.04135 14.6169 8.93727 14.6786L8.16245 13.8998C8.48072 13.6572 8.85883 13.4955 9.27314 13.4384V14.5376ZM9.9313 13.4384C10.3466 13.4955 10.7242 13.6572 11.042 13.9003L10.2677 14.6786C10.1636 14.6169 10.0515 14.5684 9.9313 14.5376V13.4384ZM9.9313 18.1824V17.0796C10.0485 17.0488 10.1596 17.0053 10.2616 16.9442L11.035 17.7225C10.7182 17.963 10.3436 18.1247 9.9313 18.1824ZM11.5066 17.2605L10.7267 16.4767C10.7871 16.3741 10.8373 16.2644 10.8685 16.1457H11.9606C11.9028 16.5606 11.7474 16.9427 11.5066 17.2605ZM10.869 15.4846C10.8389 15.3654 10.7921 15.2527 10.7313 15.1486L11.5071 14.3688C11.7474 14.6887 11.9053 15.0677 11.9621 15.4846H10.869Z" fill="#493F3A"/>
<path d="M42.2177 11.9879C40.118 11.9879 38.416 13.6976 38.416 15.8086C38.416 15.9723 38.4286 16.1325 38.4487 16.2892C38.684 18.1738 40.2804 19.6303 42.2167 19.6303C44.2068 19.6303 45.8374 18.0929 46.0028 16.1351C46.0118 16.0269 46.0184 15.9188 46.0184 15.8086C46.0194 13.6976 44.3179 11.9879 42.2177 11.9879ZM40.3131 14.3688L41.0889 15.1486C41.0286 15.2527 40.9813 15.3654 40.9516 15.4846H39.858C39.9149 15.0677 40.0732 14.6887 40.3131 14.3688ZM39.8545 16.1457H40.9557C40.9868 16.2634 41.0321 16.3751 41.0924 16.4772L40.3156 17.2585C40.0758 16.9406 39.9124 16.5606 39.8545 16.1457ZM41.8884 18.1824C41.4771 18.1258 41.1025 17.963 40.7862 17.7235L41.559 16.9462C41.6601 17.0058 41.7722 17.0498 41.8884 17.0806V18.1824ZM41.8884 14.5376C41.7692 14.5689 41.6566 14.6169 41.552 14.6786L40.7772 13.8998C41.0959 13.6572 41.4735 13.4955 41.8879 13.4384L41.8884 14.5376ZM42.547 13.4384C42.9613 13.4955 43.3394 13.6572 43.6577 13.9003L42.8829 14.6786C42.7788 14.6169 42.6662 14.5684 42.547 14.5376V13.4384ZM42.547 18.1824V17.0796C42.6632 17.0488 42.7753 17.0053 42.8764 16.9442L43.6497 17.7225C43.3334 17.963 42.9583 18.1247 42.547 18.1824ZM44.1218 17.2605L43.342 16.4767C43.4023 16.3741 43.4526 16.2644 43.4832 16.1457H44.5763C44.518 16.5606 44.3621 16.9427 44.1218 17.2605ZM43.4837 15.4846C43.4536 15.3654 43.4073 15.2527 43.347 15.1486L44.1223 14.3688C44.3626 14.6887 44.5205 15.0677 44.5778 15.4846H43.4837Z" fill="#493F3A"/>
<path d="M49.823 8.88893C49.7949 8.04495 49.5636 7.22067 49.1498 6.48636L46.4196 1.64432C45.9721 0.851382 45.152 0.343982 44.2465 0.297992C39.671 0.0675391 25.6419 -0.519712 21.2253 0.673994C18.2376 1.48209 10.6986 6.46362 10.6986 6.46362C10.6986 6.46362 2.40392 7.75486 0.821611 11.5573C0.821611 11.5573 0.138808 11.9581 0.0146162 12.9855C-0.0492395 13.5142 0.106629 14.3167 0.278587 14.9894C0.467137 15.7252 1.07402 16.2791 1.82068 16.3958L5.42073 16.9629C5.36693 16.7653 5.32218 16.5646 5.29603 16.3574C5.27341 16.1785 5.25832 15.9956 5.25832 15.8081C5.25832 13.401 7.20668 11.4431 9.60202 11.4431C11.9979 11.4431 13.9462 13.401 13.9462 15.8081C13.9462 15.9339 13.9382 16.0572 13.9281 16.1795C13.8919 16.6061 13.7934 17.0139 13.643 17.3965L14.0664 17.4192L37.9836 16.7688C37.9529 16.6334 37.9288 16.4969 37.9107 16.3574C37.8876 16.1785 37.8735 15.9956 37.8735 15.8081C37.8735 13.401 39.8218 11.4431 42.2167 11.4431C44.6125 11.4431 46.5609 13.401 46.5609 15.8081C46.5609 15.9339 46.5528 16.0572 46.5423 16.1795C46.5357 16.2604 46.5217 16.3387 46.5111 16.4186L48.5751 15.9951C49.4263 15.8202 50.0287 15.0551 49.9985 14.1813L49.823 8.88893ZM36.0584 1.19251L36.6079 6.7067L28.174 7.05339V1.16472C30.6397 1.10761 33.4544 1.13338 36.0584 1.19251ZM14.7758 7.44759L13.9417 7.49459C13.7149 7.50722 13.5073 7.36875 13.4308 7.15346C13.3544 6.93918 13.4283 6.70013 13.6108 6.5652C14.1011 6.20537 14.7014 5.77529 15.3701 5.32096V6.72793C14.9629 7.07411 14.7758 7.44759 14.7758 7.44759ZM16.8428 6.15685C16.7901 6.15887 16.7468 6.17201 16.6965 6.17707V4.44715C18.397 3.36362 20.3242 2.28767 21.9815 1.74843C22.7357 1.50332 24.1113 1.34665 25.8209 1.25316V7.14992L18.5745 7.44759C18.5745 7.44759 18.3231 6.10126 16.8428 6.15685ZM46.141 5.62216C45.8881 6.06386 45.4276 6.34435 44.9212 6.36557L38.9621 6.61018L38.4281 1.25619C40.8908 1.33149 42.9483 1.42448 43.9906 1.48108C44.4727 1.50686 44.9077 1.78633 45.1324 2.21591L46.1667 4.1884C46.4035 4.6397 46.3934 5.18147 46.141 5.62216Z" fill="#493F3A"/>
</g>
<defs>
<clipPath id="clip0">
<rect width="50" height="20" fill="white"/>
</clipPath>
</defs>
</svg>
