<svg width="10" height="10" viewBox="0 0 10 10" fill="none" xmlns="http://www.w3.org/2000/svg">
<path d="M9.63672 0.48067L7.60551 0.0119297C7.38481 -0.0388505 7.15825 0.0763815 7.06841 0.283408L6.13093 2.47086C6.0489 2.66226 6.10359 2.88687 6.2657 3.01773L7.44926 3.98646C6.74615 5.48447 5.51766 6.73054 3.9884 7.44732L3.01967 6.26375C2.88686 6.10164 2.66421 6.04696 2.47281 6.12899L0.285354 7.06647C0.0763737 7.15826 -0.0388582 7.38482 0.0119219 7.60552L0.480662 9.63673C0.529489 9.84766 0.716985 10 0.937684 10C5.93953 10 9.99999 5.94735 9.99999 0.937691C9.99999 0.718946 9.8496 0.529497 9.63672 0.48067Z" fill="#4A463E"/>
</svg>
