<svg width="25" height="25" viewBox="0 0 25 25" fill="none" xmlns="http://www.w3.org/2000/svg">
<path d="M24.3952 0H23.8911C23.5571 0 23.2863 0.270817 23.2863 0.604839V6.1808C21.1154 2.48291 17.098 0 12.5 0C5.80786 0 0.343952 5.25897 0.015625 11.8696C-0.00146167 12.2133 0.275958 12.5 0.62001 12.5H1.12485C1.44506 12.5 1.71184 12.2506 1.72853 11.9308C2.02404 6.26089 6.70852 1.71371 12.5 1.71371C16.6765 1.71371 20.2992 4.08654 22.0912 7.56048H16.3306C15.9966 7.56048 15.7258 7.8313 15.7258 8.16532V8.66935C15.7258 9.00338 15.9966 9.27419 16.3306 9.27419H24.3952C24.7292 9.27419 25 9.00338 25 8.66935V0.604839C25 0.270817 24.7292 0 24.3952 0ZM24.38 12.5H23.8752C23.555 12.5 23.2882 12.7494 23.2715 13.0692C22.9759 18.758 18.2735 23.2863 12.5 23.2863C8.33629 23.2863 4.70403 20.9198 2.90832 17.4395H8.66935C9.00338 17.4395 9.27419 17.1687 9.27419 16.8347V16.3306C9.27419 15.9966 9.00338 15.7258 8.66935 15.7258H0.604839C0.270817 15.7258 0 15.9966 0 16.3306V24.3952C0 24.7292 0.270817 25 0.604839 25H1.10887C1.44289 25 1.71371 24.7292 1.71371 24.3952V18.8192C3.88463 22.5171 7.90207 25 12.5 25C19.1922 25 24.656 19.741 24.9844 13.1304C25.0015 12.7867 24.724 12.5 24.38 12.5Z" fill="black"/>
</svg>
