<svg width="50" height="18" viewBox="0 0 50 18" fill="none" xmlns="http://www.w3.org/2000/svg">
<g clip-path="url(#clip0)">
<path d="M8.72762 10.4853C6.6441 10.4853 4.95465 12.1829 4.95465 14.2776C4.95465 14.4391 4.96779 14.598 4.988 14.7539C5.22191 16.6232 6.80476 18.0689 8.72712 18.0689C10.7015 18.0689 12.3202 16.5435 12.4844 14.6006C12.493 14.4944 12.5001 14.3863 12.5001 14.2771C12.5006 12.1829 10.8117 10.4853 8.72762 10.4853ZM6.83912 12.8486L7.60806 13.622C7.54844 13.7251 7.50146 13.8363 7.47115 13.9552H6.38695C6.44252 13.5428 6.59964 13.166 6.83912 12.8486ZM6.38189 14.6118H7.47468C7.5055 14.7286 7.55097 14.8393 7.6116 14.9408L6.84063 15.7152C6.60166 15.4004 6.441 15.0236 6.38189 14.6118ZM8.40125 16.6333C7.99253 16.576 7.6212 16.415 7.30695 16.1768L8.07387 15.4055C8.17492 15.4649 8.28556 15.5085 8.40125 15.539V16.6333ZM8.40125 13.0162C8.28253 13.0477 8.17138 13.0944 8.06781 13.1559L7.29937 12.3835C7.61513 12.1423 7.99001 11.9828 8.40125 11.9254V13.0162ZM9.0545 11.9244C9.46575 11.9818 9.84113 12.1423 10.1564 12.383L9.38845 13.1554C9.28539 13.0939 9.17323 13.0472 9.05501 13.0157L9.0545 11.9244ZM9.0545 16.6323V15.5395C9.1707 15.5085 9.28033 15.4654 9.38138 15.4055L10.1488 16.1768C9.83456 16.415 9.46272 16.5749 9.0545 16.6323ZM10.6166 15.7188L9.84315 14.9403C9.90377 14.8382 9.95278 14.7291 9.9836 14.6123H11.0678C11.0102 15.0226 10.8561 15.4024 10.6166 15.7188ZM9.98511 13.9552C9.9543 13.8363 9.90782 13.7251 9.8482 13.622L10.6182 12.8486C10.8561 13.166 11.0132 13.5428 11.0698 13.9557H9.98511V13.9552Z" fill="#493F3A"/>
<path d="M40.0558 10.4853C37.9723 10.4853 36.2828 12.1829 36.2828 14.2776C36.2828 14.4391 36.296 14.598 36.3162 14.7539C36.5501 16.6232 38.1329 18.0689 40.0548 18.0689C42.0292 18.0689 43.6479 16.5435 43.8126 14.6006C43.8212 14.4944 43.8283 14.3863 43.8283 14.2771C43.8293 12.1829 42.1398 10.4853 40.0558 10.4853ZM38.1673 12.8486L38.9357 13.622C38.8761 13.7251 38.8291 13.8363 38.7988 13.9552H37.7146C37.7707 13.5428 37.9278 13.166 38.1673 12.8486ZM37.7106 14.6118H38.8034C38.8342 14.7286 38.8797 14.8393 38.9403 14.9408L38.1698 15.7152C37.9299 15.4004 37.7687 15.0236 37.7106 14.6118ZM39.7294 16.6333C39.3207 16.576 38.9494 16.415 38.6351 16.1768L39.4021 15.4055C39.5031 15.4649 39.6137 15.5085 39.7294 15.539V16.6333ZM39.7294 13.0162C39.6107 13.0477 39.4996 13.0944 39.396 13.1559L38.6276 12.3835C38.9433 12.1423 39.3177 11.9828 39.7294 11.9254V13.0162ZM40.3832 11.9244C40.7944 11.9818 41.1698 12.1423 41.4851 12.383L40.7166 13.1554C40.6136 13.0939 40.5014 13.0462 40.3832 13.0157V11.9244ZM40.3832 16.6323V15.5395C40.4994 15.5085 40.609 15.4654 40.7101 15.4055L41.4775 16.1768C41.1632 16.415 40.7909 16.5749 40.3832 16.6323ZM41.9448 15.7188L41.1713 14.9413C41.232 14.8387 41.2815 14.7301 41.3118 14.6128H42.396C42.3384 15.0226 42.1848 15.4024 41.9448 15.7188ZM41.3133 13.9552C41.2825 13.8363 41.2365 13.7251 41.1764 13.622L41.9458 12.8486C42.1843 13.166 42.3409 13.5428 42.398 13.9557H41.3133V13.9552Z" fill="#493F3A"/>
<path d="M49.1153 8.52212V5.71596C49.1153 5.26452 48.789 4.88214 48.3454 4.81257C47.2809 4.64499 45.3939 4.32863 44.5461 4.06609C43.3306 3.6893 38.6341 1.69056 37.0078 1.31529C35.381 0.940014 28.0462 -1.0638 21.0211 1.38384C19.8324 1.79771 14.4846 4.36722 11.3401 5.70327C10.4141 5.72358 1.24788 7.64412 0.759838 8.96036C0.271796 10.2771 0.118715 10.9159 0.028786 11.2501C-0.061143 11.5842 0.028786 13.1833 0.709821 14.2969C1.40399 14.6915 2.7403 14.9566 4.28526 15.1343C4.26757 15.0394 4.24837 14.9459 4.23625 14.8499C4.20947 14.6448 4.19684 14.4574 4.19684 14.2787C4.19684 11.7675 6.22883 9.72411 8.72764 9.72411C11.2265 9.72411 13.2584 11.767 13.2584 14.2787C13.2584 14.4076 13.2499 14.5356 13.2403 14.6615C13.2165 14.9434 13.166 15.2171 13.0927 15.4806C13.0963 15.4806 13.1049 15.4806 13.1049 15.4806L35.5952 15.0256C35.5851 14.9672 35.5719 14.9094 35.5644 14.8499C35.5376 14.6458 35.525 14.4579 35.525 14.2787C35.525 11.7675 37.5569 9.72462 40.0558 9.72462C42.5546 9.72462 44.5871 11.767 44.5871 14.2787C44.5871 14.2883 44.5861 14.2964 44.5856 14.3056L44.6815 14.2974L48.5268 13.5697C48.5268 13.5697 49.9995 12.7816 49.9995 10.6133C50 9.16704 49.1153 8.52212 49.1153 8.52212ZM26.8054 5.86171L18.4061 6.12018C18.5607 4.85523 17.8155 4.57136 17.8155 4.57136C21.1545 1.52501 27.884 1.42193 27.884 1.42193L26.8054 5.86171ZM36.2318 5.47526L28.5777 5.73374L29.2714 1.42243C33.2272 1.37064 35.4871 2.24813 35.4871 2.24813L36.6172 4.08132L36.2318 5.47526ZM40.5468 5.44886H38.4143L36.2823 2.5061C37.8818 3.14594 39.162 3.77664 39.9244 4.17527C40.3872 4.41699 40.6398 4.93343 40.5468 5.44886Z" fill="#493F3A"/>
</g>
<defs>
<clipPath id="clip0">
<rect width="50" height="18" fill="white"/>
</clipPath>
</defs>
</svg>
