<svg width="55" height="20" viewBox="0 0 55 20" fill="none" xmlns="http://www.w3.org/2000/svg">
<path d="M54.5019 11.2076L54.126 11.1487C54.2609 5.96769 53.4516 4.92416 52.546 1.75131H53.0441C53.2807 1.75131 53.4715 1.55849 53.4715 1.32122V0.827234C53.4715 0.589965 53.2796 0.397705 53.0441 0.397705H22.7341C22.2891 0.397705 21.8529 0.517729 21.4703 0.744996L12.2839 6.19941C12.2839 6.19941 3.08759 6.57226 1.66239 7.98976C0.942052 8.70601 0.290818 10.1191 0.0531005 11.75C-0.184617 13.3803 0.436212 15.1184 0.788918 15.4935C1.14218 15.8685 1.70828 16.048 1.70828 16.048L1.93272 16.4764C2.07757 16.7521 2.36393 16.9215 2.67407 16.9137L4.15234 16.8782V12.7757C4.15234 11.1848 5.43712 9.89292 7.02098 9.89292H10.9455C12.3337 9.89292 13.4598 11.0237 13.4598 12.4206V16.6504L13.5267 16.6487L37.5284 16.2781L37.8739 16.3131V12.7752C37.8739 11.1843 39.1587 9.89236 40.742 9.89236H44.6676C46.0563 9.89236 47.1814 11.0231 47.1814 12.4201V17.0449L50.4934 16.3381C50.6675 16.3008 50.8168 16.1847 50.8964 16.0236L51.1385 15.539L54.4881 15.0984C54.7811 15.0601 55.0006 14.8083 55.0006 14.5105V11.7916C54.9995 11.5016 54.7883 11.2532 54.5019 11.2076ZM25.6707 6.46557C25.5972 6.54448 25.4944 6.58948 25.386 6.58948H18.0748C18.0748 6.58948 18.5237 6.35777 18.7587 6.02715C18.9942 5.69764 18.8637 4.91693 18.5995 4.65355C18.3568 4.41239 17.8686 4.24847 17.8686 4.24847L21.5455 1.97302C21.781 1.82688 22.0519 1.75019 22.3289 1.75019H25.4402C25.5441 1.75019 25.6436 1.79187 25.7166 1.86633C25.7896 1.94079 25.8299 2.04081 25.8283 2.14583L25.7747 6.17107C25.7818 6.27998 25.7448 6.38611 25.6707 6.46557ZM34.8532 6.13884C34.6078 6.43834 34.2435 6.61504 33.8565 6.62394L28.0048 6.75174C27.9003 6.75396 27.7986 6.71451 27.7239 6.64116C27.6487 6.56726 27.6067 6.46613 27.6067 6.36111V2.14083C27.6067 1.92523 27.7803 1.75075 27.9948 1.75075H34.4895C34.6907 1.75075 34.8582 1.90467 34.8759 2.10638L35.1379 5.06418C35.2026 5.44704 35.0987 5.83989 34.8532 6.13884ZM52.164 6.14218C52.1297 6.20052 52.0673 6.23553 51.9998 6.23608L40.1129 6.3261C39.5982 6.32999 39.1183 6.06605 38.8425 5.62874L37.5964 2.27752C37.5516 2.1575 37.5682 2.02358 37.6406 1.91856C37.7136 1.81354 37.833 1.75075 37.9596 1.75075H50.5343C50.7034 1.75075 50.8516 1.85966 50.9041 2.0208L52.169 5.95158C52.2011 6.01215 52.1988 6.08439 52.164 6.14218Z" fill="#493F3A"/>
<path d="M8.80449 10.7259C6.46325 10.7259 4.56262 12.6335 4.56262 14.989C4.56262 15.1718 4.57755 15.3485 4.59966 15.5257C4.86336 17.6273 6.64292 19.2537 8.80394 19.2537C11.0274 19.2537 12.8451 17.5389 13.0298 15.3529C13.0403 15.2312 13.048 15.1118 13.048 14.989C13.0486 12.6335 11.149 10.7259 8.80449 10.7259ZM6.67996 13.3831L7.5468 14.2516C7.4788 14.3699 7.42462 14.495 7.39256 14.6283H6.17246C6.23549 14.1627 6.41239 13.7393 6.67996 13.3831ZM6.16804 15.3663H7.39754C7.43236 15.4963 7.48267 15.6213 7.55178 15.7363L6.68328 16.6071C6.41571 16.2531 6.23328 15.8286 6.16804 15.3663ZM8.43741 17.6378C7.97911 17.5761 7.56062 17.3944 7.20736 17.1266L8.07033 16.2587C8.18256 16.3253 8.30805 16.3737 8.43741 16.4087V17.6378ZM8.43741 13.5715C8.30528 13.6059 8.17979 13.6598 8.06259 13.7282L7.19962 12.8596C7.55399 12.5879 7.97524 12.4084 8.43686 12.3434L8.43741 13.5715ZM9.17157 12.344C9.63595 12.4084 10.0572 12.5874 10.4121 12.8613L9.54805 13.7287C9.4325 13.6609 9.30591 13.6059 9.17102 13.5726L9.17157 12.344ZM9.17157 17.6378V16.4081C9.30259 16.3737 9.42698 16.3253 9.54141 16.2575L10.4033 17.1266C10.0506 17.3939 9.63208 17.575 9.17157 17.6378ZM10.9301 16.6093L10.0611 15.7352C10.1274 15.6213 10.1838 15.4985 10.2181 15.3663H11.4365C11.3724 15.8286 11.1994 16.2559 10.9301 16.6093ZM10.2181 14.6283C10.186 14.4955 10.1329 14.3699 10.066 14.2516L10.9307 13.3831C11.1994 13.7409 11.3763 14.1627 11.4393 14.6283H10.2181Z" fill="#493F3A"/>
<path d="M42.5259 10.7259C40.1841 10.7259 38.283 12.6335 38.283 14.989C38.283 15.1718 38.2973 15.3485 38.3206 15.5257C38.5837 17.6273 40.3638 19.2537 42.5248 19.2537C44.7478 19.2537 46.5655 17.5389 46.7501 15.3529C46.7612 15.2312 46.7683 15.1118 46.7683 14.989C46.7695 12.6335 44.871 10.7259 42.5259 10.7259ZM40.4014 13.3831L41.2671 14.2516C41.1991 14.3699 41.1455 14.495 41.1135 14.6283H39.8939C39.9564 14.1627 40.1333 13.7393 40.4014 13.3831ZM39.8889 15.3663H41.1184C41.1533 15.4963 41.203 15.6213 41.2721 15.7363L40.4047 16.6071C40.1366 16.2531 39.9542 15.8286 39.8889 15.3663ZM42.1583 17.6378C41.6995 17.5761 41.281 17.3944 40.9277 17.1266L41.7912 16.2587C41.9034 16.3253 42.0295 16.3737 42.1583 16.4087V17.6378ZM42.1583 13.5715C42.0267 13.6059 41.9007 13.6598 41.7829 13.7282L40.92 12.8596C41.2738 12.5879 41.695 12.4084 42.1572 12.3434L42.1583 13.5715ZM42.8936 12.344C43.3574 12.4084 43.7786 12.5874 44.1336 12.8613L43.2695 13.7287C43.1539 13.6609 43.0273 13.6059 42.893 13.5726L42.8936 12.344ZM42.8936 17.6378V16.4081C43.0235 16.3737 43.1484 16.3253 43.2629 16.2575L44.1247 17.1266C43.7715 17.3939 43.3535 17.575 42.8936 17.6378ZM44.6516 16.6093L43.782 15.7352C43.8483 15.6213 43.9052 15.4985 43.9395 15.3663H45.158C45.0938 15.8286 44.9202 16.2559 44.6516 16.6093ZM43.9395 14.6283C43.9069 14.4955 43.8538 14.3699 43.788 14.2516L44.6521 13.3831C44.9197 13.7409 45.0977 14.1627 45.1607 14.6283H43.9395Z" fill="#493F3A"/>
</svg>
