<svg width="17" height="17" viewBox="0 0 17 17" fill="none" xmlns="http://www.w3.org/2000/svg">
<path d="M8.5 0C3.80444 0 0 3.80444 0 8.5C0 13.1956 3.80444 17 8.5 17C13.1956 17 17 13.1956 17 8.5C17 3.80444 13.1956 0 8.5 0ZM15.9032 8.5C15.9032 12.5683 12.6095 15.9032 8.5 15.9032C4.43165 15.9032 1.09677 12.6095 1.09677 8.5C1.09677 4.43165 4.39052 1.09677 8.5 1.09677C12.5683 1.09677 15.9032 4.39052 15.9032 8.5ZM10.7998 11.5264L8.01673 9.50423C7.91048 9.4254 7.84879 9.30202 7.84879 9.17177V3.70161C7.84879 3.4754 8.03387 3.29032 8.26008 3.29032H8.73992C8.96613 3.29032 9.15121 3.4754 9.15121 3.70161V8.71593L11.5675 10.4742C11.7526 10.6079 11.7903 10.8649 11.6567 11.05L11.3756 11.4373C11.2419 11.619 10.9849 11.6601 10.7998 11.5264Z" fill="white"/>
</svg>
