<svg width="27" height="30" viewBox="0 0 27 30" fill="none" xmlns="http://www.w3.org/2000/svg">
<g opacity="0.8">
<g clip-path="url(#clip0)">
<path d="M13.0435 15C17.1603 15 20.4969 11.6426 20.4969 7.5C20.4969 3.35742 17.1603 0 13.0435 0C8.92663 0 5.59006 3.35742 5.59006 7.5C5.59006 11.6426 8.92663 15 13.0435 15ZM18.6219 16.9102L15.8385 28.125L13.9752 20.1562L15.8385 16.875H10.2484L12.1118 20.1562L10.2484 28.125L7.46506 16.9102C3.31328 17.1094 0 20.5254 0 24.75V27.1875C0 28.7402 1.25194 30 2.79503 30H23.2919C24.835 30 26.087 28.7402 26.087 27.1875V24.75C26.087 20.5254 22.7737 17.1094 18.6219 16.9102Z" fill="white"/>
</g>
</g>
<defs>
<clipPath id="clip0">
<rect width="26.087" height="30" fill="white"/>
</clipPath>
</defs>
</svg>
