<svg width="11" height="12" viewBox="0 0 11 12" fill="none" xmlns="http://www.w3.org/2000/svg">
<path d="M5.17241 6C6.80496 6 8.12808 4.65703 8.12808 3C8.12808 1.34297 6.80496 0 5.17241 0C3.53987 0 2.21675 1.34297 2.21675 3C2.21675 4.65703 3.53987 6 5.17241 6ZM7.24138 6.75H6.85576C6.34313 6.98906 5.77278 7.125 5.17241 7.125C4.57204 7.125 4.004 6.98906 3.48907 6.75H3.10345C1.39009 6.75 0 8.16094 0 9.9V10.875C0 11.4961 0.496459 12 1.10837 12H9.23645C9.84837 12 10.3448 11.4961 10.3448 10.875V9.9C10.3448 8.16094 8.95474 6.75 7.24138 6.75Z" fill="#4A463E"/>
</svg>
